# xmcd
#
# Track frame offsets: 
#        182
#        12135
#        23070
#        32825
#        45887
#        57285
#        70395
#        79552
#        91495
#        104297
#        115325
#        125727
#        137200
#        148232
#        163077
#        176412
#        190912
#        201780
#        215970
#        225940
#        239275
#
# Disc length: 3343 seconds
#
# Revision: 0
# Processed by: cddbd v1.4PL0 Copyright (c) Steve Scherf et al.
# Submitted via: ExactAudioCopy v0.90a11
#
DISCID=270d0d15
DTITLE=Frankie Laine - Country Music
DYEAR=1900
DGENRE=
TTITLE0=Wanted Man
TTITLE1=High Noon
TTITLE2=Gunfight At The O.K. Corral
TTITLE3=Bowie Knife
TTITLE4=Along The Navajo Trail
TTITLE5=The Cry Of The Wild Goose
TTITLE6=Rawhide
TTITLE7=City Boy
TTITLE8=Cool Water
TTITLE9=The 3.10 To Yuma
TTITLE10=The Hanging Tree
TTITLE11=Mule Train
TTITLE12=There's A Rainbow Round My Shoulder
TTITLE13=On The Trail
TTITLE14=Moonlight Gambler
TTITLE15=Jezebel
TTITLE16=Sixteen Tons
TTITLE17=Riders In The Sky
TTITLE18=I Believe
TTITLE19=Granada
TTITLE20=Rose,Rose, I Love You
EXTD=
EXTT0=
EXTT1=
EXTT2=
EXTT3=
EXTT4=
EXTT5=
EXTT6=
EXTT7=
EXTT8=
EXTT9=
EXTT10=
EXTT11=
EXTT12=
EXTT13=
EXTT14=
EXTT15=
EXTT16=
EXTT17=
EXTT18=
EXTT19=
EXTT20=
PLAYORDER=
